<svg xmlns="http://www.w3.org/2000/svg" viewBox="0 0 640 400" width="640" height="400">
  <defs>
    <linearGradient id="bg" x1="0" y1="0" x2="1" y2="1">
      <stop offset="0" stop-color="#19305a"/>
      <stop offset="1" stop-color="#3a1d5e"/>
    </linearGradient>
    <linearGradient id="ribbon" x1="0" y1="0" x2="1" y2="0">
      <stop offset="0" stop-color="#7fc4ff" stop-opacity="0"/>
      <stop offset="0.5" stop-color="#bfe3ff" stop-opacity="0.95"/>
      <stop offset="1" stop-color="#b98bff" stop-opacity="0"/>
    </linearGradient>
    <radialGradient id="glow" cx="0.5" cy="0.55" r="0.6">
      <stop offset="0" stop-color="#9ad4ff" stop-opacity="0.35"/>
      <stop offset="1" stop-color="#9ad4ff" stop-opacity="0"/>
    </radialGradient>
  </defs>
  <rect width="640" height="400" fill="url(#bg)"/>
  <rect width="640" height="400" fill="url(#glow)"/>
  <path d="M-20 230 C 120 160, 220 300, 340 220 S 560 150, 660 210 L 660 250 C 540 200, 460 300, 330 250 S 110 210, -20 270 Z" fill="url(#ribbon)" opacity="0.9"/>
  <path d="M-20 200 C 140 150, 240 250, 360 190 S 560 140, 660 180" fill="none" stroke="url(#ribbon)" stroke-width="6" opacity="0.7"/>
  <g fill="#ffffff">
    <circle cx="90" cy="120" r="1.6" opacity="0.8"/>
    <circle cx="180" cy="80" r="1.2" opacity="0.6"/>
    <circle cx="430" cy="110" r="1.8" opacity="0.7"/>
    <circle cx="520" cy="160" r="1.3" opacity="0.6"/>
    <circle cx="260" cy="300" r="1.5" opacity="0.7"/>
    <circle cx="380" cy="330" r="1.2" opacity="0.5"/>
    <circle cx="600" cy="300" r="1.4" opacity="0.6"/>
  </g>
  <g transform="translate(515,300)" opacity="0.9">
    <circle r="46" fill="none" stroke="#ffffff" stroke-opacity="0.25" stroke-width="2"/>
    <circle r="46" fill="none" stroke="#7fc4ff" stroke-width="3" stroke-dasharray="40 250" stroke-linecap="round"/>
    <circle r="6" fill="#bfe3ff"/>
  </g>
  <text x="40" y="320" font-family="Kanit, Arial, sans-serif" font-size="44" font-weight="800" font-style="italic" fill="#ffffff" opacity="0.95">Tool Dial</text>
  <text x="42" y="350" font-family="Kanit, Arial, sans-serif" font-size="18" fill="#bfe3ff" opacity="0.9">Themes &amp; launcher</text>
</svg>
